{"title":"The Hunt For Red October (1990) DVDRip XviD AC3 peaSoup","uid":8829782,"size":1268047450,"categoryP":"video","categoryS":"movies","magnet":"?xt=urn:btih:b41db64681d8f36c7597c81db6016dc2583c8ac0&amp;dn=The+Hunt+For+Red+October+%281990%29+DVDRip+XviD+AC3+peaSoup&amp;tr=udp%3A%2F%2Ftracker.openbittorrent.com%3A80&amp;tr=udp%3A%2F%2Fopen.demonii.com%3A1337&amp;tr=udp%3A%2F%2Ftracker.coppersurfer.tk%3A6969&amp;tr=udp%3A%2F%2Fexodus.desync.com%3A6969","seeders":9,"leechers":1,"uploader":"peaSoup","files":-1,"time":1376937921,"description":"Storyline\n\nSoviets create a new nuclear submarine that runs silent due to a revolutionary propulsion system. Russian sub captain defects, goal of taking it to the U.S.A. to prevent the Russians from using the sub to wreak nuclear (missile) war against the U.S. Lots of plot turns and twists in this high-tech thriller.                      &lt;a href=&quot; http://imageshack.us/a/img827/8901/3uf7.jpg&quot; rel=&quot;nofollow&quot; target=&quot;_NEW&quot;&gt; http://imageshack.us/a/img827/8901/3uf7.jpg&lt;/a&gt;                                         &lt;a href=&quot; http://imageshack.us/a/img27/8844/zw7t.jpg&quot; rel=&quot;nofollow&quot; target=&quot;_NEW&quot;&gt; http://imageshack.us/a/img27/8844/zw7t.jpg&lt;/a&gt;                                          &lt;a href=&quot; http://imageshack.us/a/img607/1660/5som.jpg&quot; rel=&quot;nofollow&quot; target=&quot;_NEW&quot;&gt; http://imageshack.us/a/img607/1660/5som.jpg&lt;/a&gt;                                         &lt;a href=&quot; http://imageshack.us/a/img5/562/68s8.jpg&quot; rel=&quot;nofollow&quot; target=&quot;_NEW&quot;&gt; http://imageshack.us/a/img5/562/68s8.jpg&lt;/a&gt;                                            &lt;a href=&quot; http://imageshack.us/a/img46/7210/zl6g.jpg&quot; rel=&quot;nofollow&quot; target=&quot;_NEW&quot;&gt; http://imageshack.us/a/img46/7210/zl6g.jpg&lt;/a&gt;                                           Format                                   : AVI\nFormat/Info                              : Audio Video Interleave\nFormat profile                           : OpenDML\nFile size                                : 1.18 GiB\nDuration                                 : 2h 9mn\nOverall bit rate                         : 1 305 Kbps\n\n\nVideo\nID                                       : 0\nFormat                                   : MPEG-4 Visual\nFormat profile                           : Advanced Simple@L5\nFormat settings, BVOP                    : 2\nFormat settings, QPel                    : No\nFormat settings, GMC                     : No warppoints\nFormat settings, Matrix                  : Default (H.263)\nCodec ID                                 : XVID\nCodec ID/Hint                            : XviD\nDuration                                 : 2h 9mn\nBit rate                                 : 850 Kbps\nWidth                                    : 720 pixels\nHeight                                   : 406 pixels\nDisplay aspect ratio                     : 16:9\nOriginal display aspect ratio            : 16:9\nFrame rate                               : 25.000 fps\nColor space                              : YUV\nChroma subsampling                       : 4:2:0\nBit depth                                : 8 bits\nScan type                                : Progressive\nCompression mode                         : Lossy\nBits/(Pixel*Frame)                       : 0.116\nStream size                              : 788 MiB (65%)\nWriting library                          : XviD 63\n\nAudio\nID                                       : 1\nFormat                                   : AC-3\nFormat/Info                              : Audio Coding 3\nMode extension                           : CM (complete main)\nFormat settings, Endianness              : Big\nCodec ID                                 : 2000\nDuration                                 : 2h 9mn\nBit rate mode                            : Constant\nBit rate                                 : 448 Kbps\nChannel(s)                               : 6 channels\nChannel positions                        : Front: L C R, Side: L R, LFE\nSampling rate                            : 48.0 KHz\nBit depth                                : 16 bits\nCompression mode                         : Lossy\nDelay relative to video                  : 40ms\nStream size                              : 415 MiB (34%)\nAlignment                                : Split accross interleaves\nInterleave, duration                     : 500 ms (12.50 video frames)\nInterleave, preload duration             : 500 ms\n\n","torrent":{"xt":"urn:btih:b41db64681d8f36c7597c81db6016dc2583c8ac0","amp;dn":"The+Hunt+For+Red+October+%281990%29+DVDRip+XviD+AC3+peaSoup","amp;tr":["udp%3A%2F%2Ftracker.openbittorrent.com%3A80","udp%3A%2F%2Fopen.demonii.com%3A1337","udp%3A%2F%2Ftracker.coppersurfer.tk%3A6969","udp%3A%2F%2Fexodus.desync.com%3A6969"],"infoHash":"b41db64681d8f36c7597c81db6016dc2583c8ac0","infoHashBuffer":{"type":"Buffer","data":[180,29,182,70,129,216,243,108,117,151,200,29,182,1,109,194,88,60,138,192]},"announce":[],"urlList":[]}}